<svg width="29" height="29" viewBox="0 0 29 29" fill="none" xmlns="http://www.w3.org/2000/svg">
<g id="ph:user">
<path id="Vector" d="M2.84109 24.0156C4.56637 21.0329 7.22508 18.8942 10.3279 17.8803C8.79308 16.9667 7.60066 15.5744 6.9337 13.9175C6.26675 12.2606 6.16214 10.4305 6.63595 8.70833C7.10975 6.98618 8.13577 5.46717 9.55643 4.38458C10.9771 3.30198 12.7139 2.71567 14.5 2.71567C16.2861 2.71567 18.0229 3.30198 19.4436 4.38458C20.8642 5.46717 21.8902 6.98618 22.3641 8.70833C22.8379 10.4305 22.7332 12.2606 22.0663 13.9175C21.3993 15.5744 20.2069 16.9667 18.6721 17.8803C21.7749 18.893 24.4336 21.0318 26.1589 24.0156C26.2222 24.1188 26.2641 24.2336 26.2823 24.3532C26.3005 24.4729 26.2946 24.5949 26.2648 24.7122C26.235 24.8295 26.1821 24.9397 26.1091 25.0362C26.0361 25.1327 25.9444 25.2136 25.8396 25.2742C25.7349 25.3347 25.619 25.3736 25.4989 25.3886C25.3788 25.4037 25.257 25.3945 25.1405 25.3617C25.024 25.3288 24.9153 25.273 24.8207 25.1975C24.7262 25.1219 24.6477 25.0282 24.59 24.9219C22.4557 21.2334 18.6835 19.0312 14.5 19.0312C10.3165 19.0312 6.54426 21.2334 4.41004 24.9219C4.35229 25.0282 4.27382 25.1219 4.17927 25.1975C4.08472 25.273 3.976 25.3288 3.85952 25.3617C3.74304 25.3945 3.62116 25.4037 3.50108 25.3886C3.381 25.3736 3.26514 25.3347 3.16035 25.2742C3.05556 25.2136 2.96395 25.1327 2.89093 25.0362C2.81791 24.9397 2.76496 24.8295 2.7352 24.7122C2.70545 24.5949 2.69949 24.4729 2.71767 24.3532C2.73586 24.2336 2.77782 24.1188 2.84109 24.0156ZM20.8437 10.875C20.8437 9.62032 20.4717 8.39383 19.7746 7.3506C19.0776 6.30738 18.0868 5.49428 16.9276 5.01414C15.7685 4.534 14.493 4.40837 13.2624 4.65314C12.0318 4.89792 10.9015 5.5021 10.0143 6.38929C9.1271 7.27648 8.52292 8.40683 8.27814 9.6374C8.03337 10.868 8.15899 12.1435 8.63914 13.3026C9.11928 14.4618 9.93237 15.4526 10.9756 16.1496C12.0188 16.8467 13.2453 17.2188 14.5 17.2188C16.1819 17.217 17.7944 16.548 18.9837 15.3587C20.173 14.1694 20.8419 12.5569 20.8437 10.875Z" fill="black"/>
</g>
</svg>
